<svg width="18" height="17" fill="none" xmlns="http://www.w3.org/2000/svg"><path d="M4.546 1.882C4.522.814 3.759 0 2.518 0 1.278 0 .467.814.467 1.882c0 1.046.787 1.883 2.004 1.883h.023c1.265 0 2.052-.837 2.052-1.883zm-.239 3.37H.681v10.894h3.626V5.252zm8.902-.256c2.386 0 4.175 1.558 4.175 4.904v6.246h-3.626v-5.828c0-1.464-.525-2.463-1.837-2.463-1.002 0-1.599.673-1.861 1.324-.096.233-.12.558-.12.883v6.085H6.315s.048-9.873 0-10.895h3.627v1.543c.48-.741 1.343-1.799 3.268-1.799z" fill="#fff"/></svg>