<svg width="202" height="33" fill="none" xmlns="http://www.w3.org/2000/svg"><g filter="url(#filter0_d)" clip-path="url(#clip0)"><path d="M2.381 16.286H1V16h1.381v.286zm2.762-.572H3.762v.857h1.38v-.857zm24.857 0h-1.381v.857H30v-.857zm-19.333 0H9.286v.857h1.38v-.857zm13.81-.285h-1.382v1.428h1.381V15.43zm-16.572 0H6.524v1.428h1.38V15.43zm19.333-.286h-1.38v2h1.38v-2zm-13.81 0h-1.38v2h1.38v-2zm2.762-.572h-1.38v2.858h1.38V14.57zm5.524 0h-1.38v2.858h1.38V14.57zM18.952 14h-1.38v4h1.38v-4z" fill="#fff" fill-opacity=".8"/></g><g filter="url(#filter1_d)"><path d="M155.391 16.857H154V15.5h1.391v1.357zM186 15.5h-1.391v1.357H186V15.5zm-27.826-1.357h-1.391v4.071h1.391v-4.071zm25.043 0h-1.391v4.071h1.391v-4.071zm-19.478 0h-1.391v4.071h1.391v-4.071zm13.913-1.357h-1.391v6.785h1.391v-6.785zm-16.695 0h-1.392v6.785h1.392v-6.785zm19.478-1.357h-1.392v9.5h1.392v-9.5zm-13.913 0h-1.392v9.5h1.392v-9.5zm2.782-2.715h-1.391v13.572h1.391V8.714zm5.566 0h-1.392v13.572h1.392V8.714zM172.087 6h-1.391v19h1.391V6z" fill="#fff" fill-opacity=".8"/></g><g filter="url(#filter2_d)" fill="#fff" fill-opacity=".8"><path d="M196.571 15.857H198v1.286h-1.429v-1.286zm-2.857-1.286h1.429v3.858h-1.429V14.57zM188 13.286h1.429v6.428H188v-6.428zM190.857 12h1.429v9h-1.429v-9z"/></g><g filter="url(#filter3_d)"><path d="M94.391 16.429H93V15.5h1.391v.929zM125 15.5h-1.391v.929H125V15.5zm-27.826-.929h-1.391v2.786h1.39v-2.786zm25.043 0h-1.391v2.786h1.391v-2.786zm-19.478 0h-1.391v2.786h1.391v-2.786zm13.913-.928h-1.391v4.643h1.391v-4.643zm-16.695 0h-1.392v4.643h1.392v-4.643zm19.478-.929h-1.392v6.5h1.392v-6.5zm-13.913 0h-1.392v6.5h1.392v-6.5zm2.782-1.857h-1.391v9.286h1.391v-9.286zm5.566 0h-1.392v9.286h1.392v-9.286zM111.087 9h-1.391v13h1.391V9z" fill="#fff" fill-opacity=".8"/></g><g filter="url(#filter4_d)" clip-path="url(#clip1)"><path d="M33.391 16.857H32V15.5h1.391v1.357zM64 15.5h-1.391v1.357H64V15.5zm-27.826-1.357h-1.391v4.071h1.39v-4.071zm25.043 0h-1.39v4.071h1.39v-4.071zm-19.478 0h-1.391v4.071h1.391v-4.071zm13.913-1.357h-1.391v6.785h1.391v-6.785zm-16.696 0h-1.39v6.785h1.39v-6.785zm19.479-1.357h-1.392v9.5h1.392v-9.5zm-13.913 0H43.13v9.5h1.392v-9.5zm2.782-2.715h-1.391v13.572h1.391V8.714zm5.566 0h-1.392v13.572h1.392V8.714zM50.087 6h-1.391v19h1.391V6z" fill="#fff" fill-opacity=".8"/></g><g filter="url(#filter5_d)"><path d="M93.25 15.958h-1.375v.459h1.375v-.459zm-27.5-.458h-1.375v1.375h1.375V15.5zm24.75 0h-1.375v1.375H90.5V15.5zm-19.25 0h-1.375v1.375h1.375V15.5zM85 15.042h-1.375v2.291H85v-2.291zm-16.5 0h-1.375v2.291H68.5v-2.291zm19.25-.459h-1.375v3.209h1.375v-3.209zm-13.75 0h-1.375v3.209H74v-3.209zm2.75-.916h-1.375v4.583h1.375v-4.583zm5.5 0h-1.375v4.583h1.375v-4.583zm-2.75-.917h-1.375v6.417H79.5V12.75z" fill="#fff" fill-opacity=".8"/></g><g filter="url(#filter6_d)"><path d="M154.25 15.958h-1.375v.459h1.375v-.459zm-27.5-.458h-1.375v1.375h1.375V15.5zm24.75 0h-1.375v1.375h1.375V15.5zm-19.25 0h-1.375v1.375h1.375V15.5zm13.75-.458h-1.375v2.291H146v-2.291zm-16.5 0h-1.375v2.291h1.375v-2.291zm19.25-.459h-1.375v3.209h1.375v-3.209zm-13.75 0h-1.375v3.209H135v-3.209zm2.75-.916h-1.375v4.583h1.375v-4.583zm5.5 0h-1.375v4.583h1.375v-4.583zm-2.75-.917h-1.375v6.417h1.375V12.75z" fill="#fff" fill-opacity=".8"/></g><defs><filter id="filter0_d" x="-3" y="14" width="37" height="12" filterUnits="userSpaceOnUse" color-interpolation-filters="sRGB"><feFlood flood-opacity="0" result="BackgroundImageFix"/><feColorMatrix in="SourceAlpha" values="0 0 0 0 0 0 0 0 0 0 0 0 0 0 0 0 0 0 127 0"/><feOffset dy="4"/><feGaussianBlur stdDeviation="2"/><feColorMatrix values="0 0 0 0 0 0 0 0 0 0 0 0 0 0 0 0 0 0 0.25 0"/><feBlend in2="BackgroundImageFix" result="effect1_dropShadow"/><feBlend in="SourceGraphic" in2="effect1_dropShadow" result="shape"/></filter><filter id="filter1_d" x="150" y="6" width="40" height="27" filterUnits="userSpaceOnUse" color-interpolation-filters="sRGB"><feFlood flood-opacity="0" result="BackgroundImageFix"/><feColorMatrix in="SourceAlpha" values="0 0 0 0 0 0 0 0 0 0 0 0 0 0 0 0 0 0 127 0"/><feOffset dy="4"/><feGaussianBlur stdDeviation="2"/><feColorMatrix values="0 0 0 0 0 0 0 0 0 0 0 0 0 0 0 0 0 0 0.25 0"/><feBlend in2="BackgroundImageFix" result="effect1_dropShadow"/><feBlend in="SourceGraphic" in2="effect1_dropShadow" result="shape"/></filter><filter id="filter2_d" x="184" y="12" width="18" height="17" filterUnits="userSpaceOnUse" color-interpolation-filters="sRGB"><feFlood flood-opacity="0" result="BackgroundImageFix"/><feColorMatrix in="SourceAlpha" values="0 0 0 0 0 0 0 0 0 0 0 0 0 0 0 0 0 0 127 0"/><feOffset dy="4"/><feGaussianBlur stdDeviation="2"/><feColorMatrix values="0 0 0 0 0 0 0 0 0 0 0 0 0 0 0 0 0 0 0.25 0"/><feBlend in2="BackgroundImageFix" result="effect1_dropShadow"/><feBlend in="SourceGraphic" in2="effect1_dropShadow" result="shape"/></filter><filter id="filter3_d" x="89" y="9" width="40" height="21" filterUnits="userSpaceOnUse" color-interpolation-filters="sRGB"><feFlood flood-opacity="0" result="BackgroundImageFix"/><feColorMatrix in="SourceAlpha" values="0 0 0 0 0 0 0 0 0 0 0 0 0 0 0 0 0 0 127 0"/><feOffset dy="4"/><feGaussianBlur stdDeviation="2"/><feColorMatrix values="0 0 0 0 0 0 0 0 0 0 0 0 0 0 0 0 0 0 0.25 0"/><feBlend in2="BackgroundImageFix" result="effect1_dropShadow"/><feBlend in="SourceGraphic" in2="effect1_dropShadow" result="shape"/></filter><filter id="filter4_d" x="28" y="6" width="40" height="27" filterUnits="userSpaceOnUse" color-interpolation-filters="sRGB"><feFlood flood-opacity="0" result="BackgroundImageFix"/><feColorMatrix in="SourceAlpha" values="0 0 0 0 0 0 0 0 0 0 0 0 0 0 0 0 0 0 127 0"/><feOffset dy="4"/><feGaussianBlur stdDeviation="2"/><feColorMatrix values="0 0 0 0 0 0 0 0 0 0 0 0 0 0 0 0 0 0 0.25 0"/><feBlend in2="BackgroundImageFix" result="effect1_dropShadow"/><feBlend in="SourceGraphic" in2="effect1_dropShadow" result="shape"/></filter><filter id="filter5_d" x="59" y="10" width="41" height="19" filterUnits="userSpaceOnUse" color-interpolation-filters="sRGB"><feFlood flood-opacity="0" result="BackgroundImageFix"/><feColorMatrix in="SourceAlpha" values="0 0 0 0 0 0 0 0 0 0 0 0 0 0 0 0 0 0 127 0"/><feOffset dy="4"/><feGaussianBlur stdDeviation="2"/><feColorMatrix values="0 0 0 0 0 0 0 0 0 0 0 0 0 0 0 0 0 0 0.25 0"/><feBlend in2="BackgroundImageFix" result="effect1_dropShadow"/><feBlend in="SourceGraphic" in2="effect1_dropShadow" result="shape"/></filter><filter id="filter6_d" x="120" y="10" width="41" height="19" filterUnits="userSpaceOnUse" color-interpolation-filters="sRGB"><feFlood flood-opacity="0" result="BackgroundImageFix"/><feColorMatrix in="SourceAlpha" values="0 0 0 0 0 0 0 0 0 0 0 0 0 0 0 0 0 0 127 0"/><feOffset dy="4"/><feGaussianBlur stdDeviation="2"/><feColorMatrix values="0 0 0 0 0 0 0 0 0 0 0 0 0 0 0 0 0 0 0.25 0"/><feBlend in2="BackgroundImageFix" result="effect1_dropShadow"/><feBlend in="SourceGraphic" in2="effect1_dropShadow" result="shape"/></filter><clipPath id="clip0"><path fill="#fff" d="M0 0h32v32H0z"/></clipPath><clipPath id="clip1"><path fill="#fff" transform="translate(31)" d="M0 0h32v32H0z"/></clipPath></defs></svg>