<svg width="74" height="66" fill="none" xmlns="http://www.w3.org/2000/svg"><path d="M42.979.957H31.02L0 54.687l5.979 10.356H68.02L74 54.687 42.979.957zm-9.414 4.405h4.327L12.86 48.719l3.76.002 10.729.018.007-.012 19.286.01 2.168 3.748H6.358L33.565 5.362zm-3.666 38.96L37 32.023l7.106 12.308-14.208-.007zM8.521 60.639L6.358 56.89h50.089l-1.926-3.33-14.978-25.942 2.164-3.748 21.228 36.768H8.522zm58.228-2.203L41.707 15.06l-7.25 12.558-9.643 16.702-4.327-.002 21.22-36.754 27.207 47.123-2.164 3.748z" fill="#8C30F5"/></svg>