<svg width="74" height="74" fill="none" xmlns="http://www.w3.org/2000/svg"><path d="M33.242 31.072V10.117L16.622.145 0 10.117v20.955l16.621 9.973 16.621-9.973zm-4.336-2.455l-10.117 6.07V23.846l10.117-6.07v10.842zM4.336 12.572L16.62 5.201l12.285 7.371v.147l-12.285 7.37-12.285-7.37v-.147zm10.117 22.116l-10.117-6.07V17.774l10.117 6.07v10.843zm42.926-1.59L40.758 43.07v20.955l16.62 9.973L74 64.025V43.07l-16.621-9.972zM55.21 67.64l-10.117-6.07V50.727l10.117 6.07V67.64zm14.453-6.07l-10.117 6.07V56.798l10.117-6.07V61.57zm0-15.9L57.38 53.044l-12.285-7.371v-.147l12.285-7.371 12.285 7.371v.147zM59.547 26.665a2.168 2.168 0 11-4.336 0 2.168 2.168 0 014.336 0zm0-8.672a2.168 2.168 0 11-4.336 0 2.168 2.168 0 014.336 0zm-8.672 0a2.168 2.168 0 11-4.336 0 2.168 2.168 0 014.336 0zm-8.672 0a2.168 2.168 0 11-4.335 0 2.168 2.168 0 014.335 0zM18.79 47.477a2.168 2.168 0 11-4.337 0 2.168 2.168 0 014.336 0zm0 8.673a2.168 2.168 0 11-4.336 0 2.168 2.168 0 014.335 0zm8.67 0a2.168 2.168 0 11-4.335 0 2.168 2.168 0 014.336 0zm8.673 0a2.168 2.168 0 11-4.336 0 2.168 2.168 0 014.336 0z" fill="#8C30F5"/></svg>