<svg width="738" height="759" fill="none" xmlns="http://www.w3.org/2000/svg"><path d="M737.242 174.066c-.054-.32-.042-.659-.125-.973a10.4 10.4 0 00-1.015-2.476c-.149-.268-.375-.481-.553-.731-.318-.501-.68-.974-1.08-1.413-.244-.249-.552-.421-.82-.647a10.196 10.196 0 00-1.27-.998l-.077-.029-.066-.048-86.812-49.738a10.39 10.39 0 00-10.331 0l-86.86 49.732-.065.048-.077.03c-.452.3-.879.635-1.277 1.003-.267.22-.594.398-.813.641-.406.444-.771.923-1.093 1.431-.172.25-.392.457-.54.719-.444.778-.785 1.61-1.016 2.476-.083.302-.071.629-.124.938-.125.568-.2 1.146-.226 1.727v21.168l-77.253-48.379c.113-.52.184-1.048.214-1.579V60.126a10.122 10.122 0 00-.226-1.698c-.053-.321-.041-.66-.124-.974a10.37 10.37 0 00-1.016-2.47 10.405 10.405 0 00-.67-.89 10.4 10.4 0 00-.956-1.254 10.65 10.65 0 00-.986-.772 10.14 10.14 0 00-1.116-.872h-.06l-.041-.09-86.866-49.732a10.393 10.393 0 00-10.331 0l-86.866 49.733-.071.053h-.059a10.2 10.2 0 00-1.122.879 10.46 10.46 0 00-.98.766 10.28 10.28 0 00-.968 1.27c-.235.28-.455.571-.659.873a10.36 10.36 0 00-1.015 2.476c-.084.303-.072.63-.125.938a10.26 10.26 0 00-.226 1.728v86.878a10.2 10.2 0 00.214 1.585l-77.235 48.373v-21.162a10.128 10.128 0 00-.226-1.698c-.053-.32-.041-.659-.124-.973a10.362 10.362 0 00-1.016-2.476c-.148-.268-.374-.481-.552-.731-.319-.501-.68-.974-1.08-1.413-.244-.249-.553-.421-.82-.647a10.196 10.196 0 00-1.27-.998l-.078-.029-.065-.048-86.824-49.738a10.39 10.39 0 00-10.331 0L5.23 166.745l-.065.048-.078.03a10.2 10.2 0 00-1.276 1.003c-.267.22-.594.398-.814.641-.405.444-.77.923-1.092 1.431-.172.25-.392.457-.54.719-.444.778-.785 1.61-1.016 2.476-.083.302-.07.629-.124.938-.125.568-.2 1.146-.226 1.727V262.6a10.391 10.391 0 005.41 9.12l81.432 44.466v118.976L5.23 481.902l-.065.047-.078.03c-.451.3-.878.636-1.276 1.004-.267.219-.594.397-.814.641-.405.444-.77.923-1.092 1.431-.172.249-.392.457-.54.718a10.415 10.415 0 00-1.016 2.476c-.083.303-.07.629-.124.938A10.22 10.22 0 000 490.915v86.842a10.39 10.39 0 005.42 9.12l86.837 47.399c.488.238.994.436 1.514.594.279.101.54.249.825.32 1.728.471 3.55.471 5.279 0 .285-.077.546-.225.825-.32a10.25 10.25 0 001.514-.594l73.732-40.25 95.594 63.644v43.064a10.388 10.388 0 005.409 9.12l86.836 47.399c.488.238.994.437 1.514.594.279.101.54.25.825.321 1.728.47 3.55.47 5.278 0 .286-.077.547-.226.826-.321a10.182 10.182 0 001.514-.594l86.812-47.41a10.39 10.39 0 005.409-9.12v-43.065l95.594-63.644 73.732 40.25c.488.238.994.436 1.514.594.279.101.54.249.825.32 1.728.471 3.551.471 5.279 0 .285-.077.546-.225.825-.32a10.25 10.25 0 001.514-.594l86.806-47.387a10.39 10.39 0 005.409-9.12v-86.836a10.231 10.231 0 00-.225-1.698c-.054-.321-.042-.659-.125-.974a10.4 10.4 0 00-1.015-2.476c-.149-.267-.374-.481-.553-.73-.318-.501-.68-.974-1.08-1.413-.244-.25-.552-.422-.82-.647a10.196 10.196 0 00-1.27-.998l-.077-.03-.066-.047-81.611-46.74V316.186l81.427-44.448a10.383 10.383 0 005.409-9.12v-86.854a10.213 10.213 0 00-.213-1.698zM431.627 615.133l-62.89 34.331-62.89-34.331-2.66-1.454 65.55-37.537 65.55 37.513-2.66 1.478zM173.678 256.437l-66.055 36.053v-63.157l66.055-36.053v63.157zM97.233 453.158l65.55 37.537-2.661 1.455-62.89 34.331-62.89-34.331-2.66-1.455 65.55-37.537zm85.963 25.282l-75.573-43.284v-118.97l68.84-37.578 95.047 61.845v75.81l-88.314 62.177zm109.095-337.642V77.641l66.055 36.077v63.139l-66.055-36.059zm152.891 0l-66.055 36.059v-63.139l66.055-36.065v63.145zm-76.445 156.258l65.55 37.537-2.66 1.454-62.89 34.331-62.89-34.331-2.66-1.454 65.55-37.537zm-76.446 55.272l66.055 36.058v63.175l-66.055-36.07v-63.163zm86.836 36.058l66.055-36.058v63.163l-66.055 36.07v-63.175zm86.836-47.933l95.048-61.863 68.839 37.596v118.976l-75.573 43.284-88.314-62.183v-75.81zm163.875-111.12v63.157l-66.043-36.053V193.28l66.043 36.053zm-66.043 342.261v-63.163l66.055 36.058v63.157l-66.055-36.052zm139.336-79.444l-62.89 34.331-62.896-34.331-2.66-1.455 65.55-37.537 65.55 37.537-2.654 1.455zm-62.89-354.148l65.55 37.537-2.66 1.454-62.89 34.331-62.896-34.331-2.66-1.454 65.556-37.537zm-96.865 127.264l-88.148 57.374-76.101-43.581v-78.523l69.706-38.06 94.175 58.972v41.146c.006.903.13 1.801.368 2.672zM368.737 22.369l65.544 37.543-62.671 34.212-2.873 1.567-2.874-1.567-62.67-34.218 65.544-37.537zM288.64 162.494l69.706 38.059v78.506l-76.101 43.581-88.148-57.374c.236-.871.358-1.769.362-2.672v-41.146l94.181-58.954zM97.233 138.002l65.55 37.537-2.661 1.454-62.89 34.331-62.89-34.331-2.66-1.454 65.55-37.537zM20.799 193.28l66.055 36.058v63.152l-66.055-36.053V193.28zm0 315.157l66.055 36.058v63.157l-66.055-36.058v-63.157zm86.836 36.058l66.055-36.058v63.157l-66.055 36.052v-63.151zm86.248 36.504c.372-1.044.572-2.141.594-3.248v-81.819l88.118-62.059 75.751 41.349v82.923l-81.641 46.74-.065.048-.077.03c-.452.3-.878.635-1.277 1.003-.267.22-.593.398-.813.641-.405.444-.771.923-1.093 1.431-.172.25-.392.457-.54.719a10.36 10.36 0 00-1.015 2.476c-.083.302-.072.629-.125.938-.124.568-.2 1.146-.226 1.727v18.799l-77.591-51.698zm98.408 71.054v-20.645l66.055 36.059v63.157l-66.055-36.053v-42.518zm86.836 78.571v-63.151l66.055-36.059v63.163l-66.055 36.047zm86.836-116.726a10.128 10.128 0 00-.226-1.698c-.053-.32-.041-.659-.124-.973a10.362 10.362 0 00-1.016-2.476c-.148-.268-.374-.481-.552-.731-.319-.501-.68-.974-1.08-1.413-.244-.249-.552-.421-.82-.647a10.188 10.188 0 00-1.27-.997l-.078-.03-.065-.048-81.605-46.74v-82.923l75.751-41.349 88.136 62.059v81.825c.022 1.107.222 2.204.594 3.248l-77.627 51.698-.018-18.805zm184.656-6.258v-63.151l66.055-36.058v63.163l-66.055 36.046zm0-315.156v-63.151l66.055-36.053v63.157l-66.055 36.047z" fill="#EEEFF4"/></svg>