<svg width="74" height="74" fill="none" xmlns="http://www.w3.org/2000/svg"><path d="M26.118 2.177v8.705h-8.706v8.706H8.706v8.706H0v43.53h47.882v-8.706h8.706v-8.706h8.706v-8.706H74V2.176H26.118zM43.529 67.47H4.353V45.706H9.08a6.54 6.54 0 006.155 4.353c3.6 0 6.53-2.93 6.53-6.53S18.835 37 15.235 37a6.54 6.54 0 00-6.155 4.353H4.353v-8.706h39.176v21.765h-4.727a6.54 6.54 0 00-6.155-4.353c-3.6 0-6.53 2.929-6.53 6.53 0 3.6 2.93 6.529 6.53 6.529a6.54 6.54 0 006.155-4.353h4.727v8.706zM13.06 43.529c0-1.2.976-2.176 2.176-2.176 1.2 0 2.177.976 2.177 2.176a2.18 2.18 0 01-2.177 2.177c-1.2 0-2.176-.976-2.176-2.177zm21.765 13.06a2.18 2.18 0 01-2.177 2.176 2.18 2.18 0 01-2.176-2.177c0-1.2.976-2.176 2.176-2.176 1.2 0 2.177.976 2.177 2.176zm17.411 2.176h-4.353v-30.47H13.06V23.94h39.176v34.824zm8.706-8.706h-4.353v-30.47H21.765v-4.354H60.94V50.06zm8.706-8.706h-4.353v-30.47H30.471V6.528h39.176v34.824zm-.001 28.294H58.765V74H74V58.765h-4.353v10.882zM4.353 4.353h10.882V0H0v15.235h4.353V4.353z" fill="#fff"/></svg>