<svg width="40" height="41" fill="none" xmlns="http://www.w3.org/2000/svg"><g clip-path="url(#clip0)" fill="#8C30F5"><path d="M34.514 35.206H5.486V5.598h29.028v29.608zM7.83 32.816h24.34V7.987H7.83v24.827zM5.486 0H7.83v3.603H5.486V0zM0 5.605h3.533v2.391H0v-2.39zM32.17 0h2.344v3.603H32.17V0zm4.297 5.605h3.532v2.391h-3.532v-2.39zM5.486 37.195H7.83V40.8H5.486v-3.604zM0 32.805h3.533v2.39H0v-2.39zm32.17 4.39h2.344V40.8H32.17v-3.604zm4.297-4.39h3.532v2.39h-3.532v-2.39z"/><path d="M24.503 28.357h-9.007L10.994 20.4l4.502-7.956h9.007l4.503 7.956-4.503 7.956zm-7.653-2.391h6.3l3.15-5.565-3.15-5.565h-6.3L13.7 20.4l3.15 5.565z"/></g><defs><clipPath id="clip0"><path fill="#fff" d="M0 0h40v40.8H0z"/></clipPath></defs></svg>