<svg width="143" height="16" fill="none" xmlns="http://www.w3.org/2000/svg"><path d="M4.86 15h2.41V2.86h4.66V.6H.2v2.26h4.66V15zm8.669 0h2.41V8.92h6.82V15h2.4V.6h-2.4v6.06h-6.82V.6h-2.41V15zm14.433 0h9.3v-2.26h-6.89V8.67h5.69V6.41h-5.69V2.86h6.89V.6h-9.3V15zm14.704 0h2.48l.98-3.12h5.68l.99 3.12h2.48L50.736.6h-3.53L42.666 15zm4.17-5.37l2.11-6.7 2.14 6.7h-4.25zM57.084 15h2.41V9.97h3.42l2.44 5.03h2.73l-2.66-5.46c.82-.367 1.43-.923 1.83-1.67.4-.747.6-1.607.6-2.58 0-1.193-.3-2.21-.9-3.05-.594-.847-1.517-1.367-2.77-1.56a4.202 4.202 0 00-.61-.06c-.22-.013-.4-.02-.54-.02h-5.95V15zm2.41-7.28V2.86h3.44a5.7 5.7 0 01.45.02c.166.013.32.037.46.07.4.1.713.28.94.54.233.253.396.54.49.86.1.32.15.633.15.94 0 .307-.05.62-.15.94a2.14 2.14 0 01-.49.86c-.227.253-.54.43-.94.53-.14.04-.294.067-.46.08a5.7 5.7 0 01-.45.02h-3.44zM73.747 15h2.41V2.86h4.66V.6h-11.73v2.26h4.66V15zm8.669 0h9.3v-2.26h-6.89V8.67h5.69V6.41h-5.69V2.86h6.89V.6h-9.3V15zm11.699 0h2.41V9h5.06V6.6h-5.06V3.01h6.26V.6h-8.67V15zm9.273 0h2.48l.98-3.12h5.68l.99 3.12h2.48L111.458.6h-3.53l-4.54 14.4zm4.17-5.37l2.11-6.7 2.14 6.7h-4.25zm15.948 5.67c1.653 0 3.033-.413 4.14-1.24 1.113-.833 1.893-1.953 2.34-3.36l-2.43-.67c-.28.933-.757 1.667-1.43 2.2-.674.533-1.547.8-2.62.8-1.447 0-2.537-.477-3.27-1.43-.727-.96-1.09-2.227-1.09-3.8.006-1.573.373-2.837 1.1-3.79.726-.96 1.813-1.44 3.26-1.44 1.073 0 1.946.267 2.62.8.673.533 1.15 1.267 1.43 2.2l2.43-.67c-.447-1.413-1.227-2.533-2.34-3.36-1.107-.827-2.487-1.24-4.14-1.24-1.434 0-2.667.317-3.7.95-1.027.627-1.817 1.503-2.37 2.63-.547 1.12-.82 2.427-.82 3.92 0 1.487.273 2.793.82 3.92.553 1.127 1.343 2.007 2.37 2.64 1.033.627 2.266.94 3.7.94zm12.135-.3h2.41V2.86h4.66V.6h-11.73v2.26h4.66V15z" fill="#fff"/></svg>