<svg width="24" height="24" fill="none" xmlns="http://www.w3.org/2000/svg"><path d="M12 0C5.373 0 0 5.373 0 12s5.373 12 12 12 12-5.373 12-12S18.627 0 12 0zm-.757 2.14a9.724 9.724 0 011.514 0v3.115a6.845 6.845 0 00-1.514 0V2.14zm-5.765 7.977L2.599 8.924c.156-.478.351-.948.58-1.399l2.879 1.193a6.76 6.76 0 00-.58 1.399zm1.217-2.35L4.493 5.563c.329-.383.688-.742 1.071-1.071l2.203 2.203a6.878 6.878 0 00-1.072 1.072zm.794-4.569a9.744 9.744 0 011.396-.586l1.205 2.874a6.733 6.733 0 00-1.396.586L7.489 3.198zM12 17.508a2.46 2.46 0 01-1.189-4.612L12 7.324l1.189 5.572A2.46 2.46 0 0112 17.508zm1.884-12.029L15.077 2.6c.479.157.948.352 1.399.581l-1.193 2.878a6.728 6.728 0 00-1.399-.58zm2.349 1.216l2.203-2.203c.383.329.742.688 1.071 1.071l-2.203 2.203a6.866 6.866 0 00-1.071-1.071zm2.259 3.321a6.713 6.713 0 00-.603-1.39l2.86-1.238c.235.445.437.912.602 1.39l-2.859 1.238z" fill="#8C30F5"/></svg>