<svg width="300" height="300" fill="none" xmlns="http://www.w3.org/2000/svg"><circle cx="150" cy="150" r="98.5" stroke="#2EC5CE"/><circle cx="150" cy="150" r="122.5" stroke="#75E3EA"/><circle cx="150" cy="150" r="149.5" stroke="#D5FAFC"/><path fill="#2EC5CE" d="M113 113h75v74h-75z"/><path d="M202.983 135.152c0-2.949-1.896-5.434-4.524-6.368v-2.991c2.627-.931 4.524-3.414 4.524-6.363 0-2.949-1.896-5.434-4.524-6.364v-4.182c2.196-1.137 3.711-3.403 3.711-6.047A6.835 6.835 0 00195.334 96c-3.179 0-5.822 2.175-6.59 5.112h-1.56c-1.015-2.461-3.435-4.2-6.261-4.2a6.78 6.78 0 00-6.266 4.2h-2.834c-1.015-2.461-3.434-4.2-6.261-4.2a6.778 6.778 0 00-6.265 4.2h-3.047a6.773 6.773 0 00-6.261-4.2 6.773 6.773 0 00-6.261 4.2h-2.774c-1.015-2.461-3.434-4.2-6.261-4.2a6.778 6.778 0 00-6.265 4.2h-3.197a6.773 6.773 0 00-6.261-4.2 6.773 6.773 0 00-6.261 4.2h-2.674c-.897-2.731-3.434-4.716-6.467-4.716a6.836 6.836 0 00-6.837 6.837c0 3.029 1.98 5.563 4.705 6.464v3.276c-2.78.844-4.823 3.396-4.823 6.456 0 3.06 2.042 5.612 4.823 6.455v2.808c-2.78.844-4.823 3.399-4.823 6.46 0 3.056 2.042 5.612 4.823 6.455v2.385c-2.78.843-4.823 3.396-4.823 6.456 0 3.059 2.042 5.612 4.823 6.455v2.66c-2.78.842-4.823 3.397-4.823 6.459 0 3.057 2.042 5.611 4.823 6.454v2.445c-2.78.844-4.823 3.399-4.823 6.459 0 3.058 2.042 5.612 4.823 6.457v2.485a6.83 6.83 0 00-4.292 6.338 6.835 6.835 0 006.837 6.837c3.27 0 5.994-2.298 6.669-5.363h1.087c.878 2.724 3.407 4.711 6.421 4.711 3.018 0 5.547-1.987 6.425-4.711h2.514c.877 2.724 3.407 4.711 6.421 4.711 3.018 0 5.547-1.987 6.425-4.711h2.728c.877 2.724 3.403 4.711 6.421 4.711 3.018 0 5.544-1.987 6.421-4.711h2.453c.877 2.724 3.406 4.711 6.42 4.711 3.019 0 5.548-1.987 6.426-4.711h2.877c.877 2.724 3.402 4.711 6.421 4.711s5.543-1.987 6.421-4.711h2.385a6.84 6.84 0 006.7 5.463 6.837 6.837 0 006.837-6.836c0-2.76-1.641-5.121-3.994-6.205v-2.811c2.627-.937 4.524-3.421 4.524-6.365 0-2.948-1.896-5.433-4.524-6.367v-2.629c2.627-.935 4.524-3.418 4.524-6.362 0-2.949-1.896-5.435-4.524-6.367v-2.844c2.627-.931 4.524-3.414 4.524-6.363 0-2.949-1.896-5.434-4.524-6.363v-2.568c2.627-.937 4.524-3.42 4.524-6.365zm-16.246 51.261h-73.581v-73.581h73.581v73.581z" fill="#8C30F5"/></svg>