<svg width="24" height="24" fill="none" xmlns="http://www.w3.org/2000/svg"><path d="M9.405 0a.649.649 0 00-.648.649v5.189a.649.649 0 101.297 0V.648A.649.649 0 009.405 0zM3.213 2.564a.644.644 0 00-.456.193.642.642 0 000 .912L5.97 6.882a.642.642 0 00.912 0 .642.642 0 000-.912L3.669 2.757a.643.643 0 00-.456-.193zm12.385 0a.643.643 0 00-.456.193L11.929 5.97a.643.643 0 000 .912.642.642 0 00.912 0l3.213-3.213a.642.642 0 000-.912.644.644 0 00-.456-.193zM8.402 8.402l5.737 14.909 2.027-4.399L21.243 24 24 21.243l-5.088-5.077 4.399-2.027L8.402 8.402zm-7.753.355a.649.649 0 100 1.297h5.169a.649.649 0 000-1.297H.648zm5.777 2.98a.644.644 0 00-.456.192l-3.213 3.213a.642.642 0 000 .912.643.643 0 00.912 0l3.213-3.213a.643.643 0 000-.912.644.644 0 00-.456-.193z" fill="#fff"/></svg>