<svg width="159" height="54" fill="none" xmlns="http://www.w3.org/2000/svg"><path d="M.04 52h9.936V17.44L32.512 52h9.936V.16h-9.936v34.56L9.976.16H.04V52zm70.525 1.08c3.744 0 7.188-.984 10.332-2.952 3.168-1.968 5.484-4.728 6.948-8.28l-9.792-2.808c-1.488 3.264-4.176 4.896-8.064 4.896-2.664 0-4.764-.744-6.3-2.232-1.512-1.488-2.448-3.624-2.808-6.408H88.17c.408-4.704-.072-8.796-1.44-12.276-1.368-3.48-3.48-6.18-6.336-8.1-2.856-1.92-6.324-2.88-10.404-2.88-3.84 0-7.236.876-10.188 2.628-2.952 1.728-5.268 4.164-6.948 7.308-1.68 3.144-2.52 6.84-2.52 11.088 0 3.888.852 7.344 2.556 10.368 1.728 3 4.104 5.364 7.128 7.092 3.048 1.704 6.564 2.556 10.548 2.556zm-.144-32.544c2.352 0 4.152.588 5.4 1.764 1.272 1.176 2.088 3.084 2.448 5.724H61.133c1.032-4.992 4.128-7.488 9.288-7.488zM90.572 52h11.52l8.064-11.952L118.148 52h11.52L115.7 32.344l13.608-19.224h-11.52l-7.632 11.52-7.776-11.52H90.86l13.608 19.224L90.572 52zm68.218 0v-8.136c-2.304.312-4.404.408-6.3.288s-3.276-.864-4.14-2.232c-.456-.72-.708-1.68-.756-2.88a211.093 211.093 0 01-.036-4.104V20.68h11.232v-7.56h-11.232V2.32h-9.792v10.8h-6.624v7.56h6.624v14.832c0 2.328.024 4.416.072 6.264.048 1.824.552 3.624 1.512 5.4 1.056 1.896 2.592 3.276 4.608 4.14 2.04.84 4.344 1.284 6.912 1.332a37.271 37.271 0 007.92-.648z" fill="#F0E3FF"/></svg>