<svg width="149" height="54" fill="none" xmlns="http://www.w3.org/2000/svg"><path d="M.04 52h9.936V17.44L32.512 52h9.936V.16h-9.936v34.56L9.976.16H.04V52zm69.95 1.08c3.887 0 7.307-.864 10.26-2.592 2.975-1.752 5.291-4.164 6.947-7.236 1.68-3.096 2.52-6.66 2.52-10.692 0-4.008-.828-7.548-2.484-10.62-1.656-3.096-3.972-5.52-6.948-7.272-2.952-1.752-6.384-2.628-10.296-2.628-3.84 0-7.236.864-10.188 2.592-2.952 1.728-5.268 4.14-6.948 7.236-1.68 3.072-2.52 6.636-2.52 10.692 0 4.008.816 7.56 2.448 10.656 1.656 3.072 3.96 5.484 6.912 7.236 2.952 1.752 6.384 2.628 10.296 2.628zm0-9.144c-3.049 0-5.365-1.02-6.949-3.06-1.56-2.064-2.34-4.836-2.34-8.316 0-3.384.744-6.12 2.232-8.208 1.512-2.112 3.864-3.168 7.056-3.168 3.096 0 5.424 1.032 6.984 3.096 1.584 2.064 2.376 4.824 2.376 8.28 0 3.336-.78 6.072-2.34 8.208-1.536 2.112-3.876 3.168-7.02 3.168zM104.508 52h7.488l8.496-25.344L128.988 52h7.488l11.88-38.88h-9.576l-7.056 23.184-7.164-23.184h-8.136l-7.164 23.184-7.056-23.184-9.576-.072L104.507 52z" fill="#F0E3FF"/></svg>