<svg width="441" height="50" fill="none" xmlns="http://www.w3.org/2000/svg"><rect width="441" height="50" rx="25" fill="#FCFCFE"/><path d="M29.95 35.41c-1.333.718-2.95-.247-2.95-1.761V16.447c0-1.535 1.66-2.498 2.993-1.736l15.481 8.852c1.362.779 1.338 2.752-.043 3.497l-15.482 8.35z" fill="#352757"/><path d="M59 25a4 4 0 014-4h207a4 4 0 010 8H63a4 4 0 01-4-4z" fill="#EEEFF4"/><rect x="59" y="21" width="78" height="8" rx="4" fill="#4071E8"/><path d="M298.8 30.992h7.52v-1.128h-5.728l4.096-3.696c.56-.501.971-.987 1.232-1.456.267-.47.4-1.067.4-1.792 0-.688-.163-1.31-.488-1.864a3.562 3.562 0 00-1.32-1.32 3.607 3.607 0 00-1.88-.496 3.86 3.86 0 00-1.92.48 3.55 3.55 0 00-1.344 1.304c-.331.55-.496 1.176-.496 1.88h1.2a2.435 2.435 0 01.32-1.256 2.62 2.62 0 01.912-.928 2.464 2.464 0 011.312-.352c.475 0 .901.115 1.28.344.379.224.677.528.896.912.224.384.336.813.336 1.288 0 .4-.075.784-.224 1.152-.149.368-.445.752-.888 1.152l-5.208 4.704-.008 1.072zm10.085-1.272h1.368v-1.368h-1.368v1.368zm.008-4.712h1.368V23.64h-1.368v1.368zm7.229 6.224c.71 0 1.339-.157 1.888-.472.555-.32.99-.76 1.304-1.32.32-.565.48-1.216.48-1.952 0-.72-.146-1.355-.44-1.904a3.163 3.163 0 00-1.232-1.28c-.528-.31-1.141-.461-1.84-.456l3.376-3.224V19.48h-6.656v1.128h5.16l-3.96 3.656.592.936c.198-.096.411-.173.64-.232a2.65 2.65 0 01.656-.088c.747 0 1.347.24 1.8.72.459.475.688 1.104.688 1.888 0 .773-.221 1.397-.664 1.872-.437.475-1.04.72-1.808.736a2.543 2.543 0 01-1.488-.424c-.442-.293-.76-.725-.952-1.296l-1.12.336c.246.779.688 1.395 1.328 1.848.646.448 1.395.672 2.248.672zm5.428-.24h7.52v-1.128h-5.728l4.096-3.696c.56-.501.971-.987 1.232-1.456.267-.47.4-1.067.4-1.792 0-.688-.163-1.31-.488-1.864a3.562 3.562 0 00-1.32-1.32 3.607 3.607 0 00-1.88-.496 3.86 3.86 0 00-1.92.48 3.55 3.55 0 00-1.344 1.304c-.331.55-.496 1.176-.496 1.88h1.2a2.435 2.435 0 01.32-1.256 2.62 2.62 0 01.912-.928 2.464 2.464 0 011.312-.352c.475 0 .901.115 1.28.344.379.224.677.528.896.912.224.384.336.813.336 1.288 0 .4-.075.784-.224 1.152-.149.368-.445.752-.888 1.152l-5.208 4.704-.008 1.072zM352 30h-5V20h5v10zm2-10v10l9 5V15l-9 5zm17 4h-5v2h5v-2zm-1.584-6.232l-4.332 2.5 1 1.732 4.332-2.5-1-1.732zm1 12.732l-4.332-2.5-1 1.732 4.332 2.5 1-1.732zm44.584-8h-3.333v-4.167H407.5V15h7.5v7.5zM407.5 35v-3.333h4.167V27.5H415V35h-7.5zM395 27.5h3.333v4.167h4.167V35H395v-7.5zm7.5-12.5v3.333h-4.167V22.5H395V15h7.5z" fill="#352757"/></svg>