<svg width="2" height="112" fill="none" xmlns="http://www.w3.org/2000/svg"><path fill-rule="evenodd" clip-rule="evenodd" d="M1.25.75a.5.5 0 01.5.5v.498a.5.5 0 11-1 0V1.25a.5.5 0 01.5-.5zm0 4.48a.5.5 0 01.5.5v.995a.5.5 0 11-1 0v-.996a.5.5 0 01.5-.5zm0 4.977a.5.5 0 01.5.5v.995a.5.5 0 01-1 0v-.995a.5.5 0 01.5-.5zm0 4.977a.5.5 0 01.5.5v.995a.5.5 0 11-1 0v-.995a.5.5 0 01.5-.5zm0 4.977a.5.5 0 01.5.5v.996a.5.5 0 01-1 0v-.996a.5.5 0 01.5-.5zm0 4.977a.5.5 0 01.5.5v.996a.5.5 0 01-1 0v-.995a.5.5 0 01.5-.5zm0 4.978a.5.5 0 01.5.5v.995a.5.5 0 11-1 0v-.995a.5.5 0 01.5-.5zm0 4.977a.5.5 0 01.5.5v.995a.5.5 0 11-1 0v-.995a.5.5 0 01.5-.5zm0 4.977a.5.5 0 01.5.5v.996a.5.5 0 01-1 0v-.996a.5.5 0 01.5-.5zm0 4.978a.5.5 0 01.5.5v.995a.5.5 0 01-1 0v-.995a.5.5 0 01.5-.5zm0 4.977a.5.5 0 01.5.5v.995a.5.5 0 11-1 0v-.995a.5.5 0 01.5-.5zm0 4.977a.5.5 0 01.5.5v.996a.5.5 0 01-1 0v-.996a.5.5 0 01.5-.5zm0 4.977a.5.5 0 01.5.5v.996a.5.5 0 01-1 0v-.996a.5.5 0 01.5-.5zm0 4.978a.5.5 0 01.5.5v.995a.5.5 0 11-1 0v-.995a.5.5 0 01.5-.5zm0 4.977a.5.5 0 01.5.5v.995a.5.5 0 11-1 0v-.995a.5.5 0 01.5-.5zm0 4.977a.5.5 0 01.5.5v.996a.5.5 0 01-1 0v-.996a.5.5 0 01.5-.5zm0 4.977a.5.5 0 01.5.5v.996a.5.5 0 01-1 0v-.996a.5.5 0 01.5-.5zm0 4.978a.5.5 0 01.5.5v.995a.5.5 0 11-1 0v-.995a.5.5 0 01.5-.5zm0 4.977a.5.5 0 01.5.5v.995a.5.5 0 01-1 0v-.995a.5.5 0 01.5-.5zm0 4.977a.5.5 0 01.5.5v.996a.5.5 0 01-1 0v-.996a.5.5 0 01.5-.5zm0 4.978a.5.5 0 01.5.5v.995a.5.5 0 01-1 0v-.995a.5.5 0 01.5-.5zm0 4.977a.5.5 0 01.5.5v.995a.5.5 0 01-1 0v-.995a.5.5 0 01.5-.5zm0 4.977a.5.5 0 01.5.5v.498a.5.5 0 01-1 0v-.498a.5.5 0 01.5-.5z" fill="#969BAB"/></svg>